.
 
http://www.scenetime.com    -  Hottest private tracker on the net. !!!

New release on http://www.scenetime.com

        Seed back for speed


...................................NFO:.................................................[IMG]http://img18.imageshack.us/img18/4434/1315740969bunraku2010.jpg[/IMG]


[color=blue][size=5][b]Bunraku.2010.DVDRip.XVID.AC3.HQ.Hive-CM8[/b][/size][/color]


[b]Thx Hive

CM8 Doing It Right The First Time :D


Source: DVD-R Legend
thx

Encode:
well DVD was just ok, had some noise in the video already, which made it harder to make a decent video.
I was not satisfied with my first 2 encodes so i trashed em. But my third version is now very good.
added brightness, sharpness, rgb and denoise.
enjoy

Video: 720x304 @bitrate 1800 2pass
Audio: English AC3 5.1 @448
Sample: yes, included[/b]


[url]http://www.imdb.com/title/tt1181795/[/url]


General
Complete name                    : Bunraku.2010.DVDRip.XVID.AC3.HQ.Hive-CM8.avi
Format                           : AVI
Format/Info                      : Audio Video Interleave
File size                        : 1.89 GiB
Duration                         : 1h 59mn
Overall bit rate                 : 2 259 Kbps
Writing application              : Nandub v1.0rc2
Writing library                  : Nandub build 1853/release

Video
ID                               : 0
Format                           : MPEG-4 Visual
Format profile                   : Advanced Simple@L5
Format settings, BVOP            : 2
Format settings, QPel            : Yes
Format settings, GMC             : No warppoints
Format settings, Matrix          : Default (H.263)
Muxing mode                      : Packed bitstream
Codec ID                         : XVID
Codec ID/Hint                    : XviD
Duration                         : 1h 59mn
Bit rate                         : 1 801 Kbps
Width                            : 720 pixels
Height                           : 304 pixels
Display aspect ratio             : 2.35:1
Frame rate                       : 25.000 fps
Color space                      : YUV
Chroma subsampling               : 4:2:0
Bit depth                        : 8 bits
Scan type                        : Progressive
Compression mode                 : Lossy
Bits/(Pixel*Frame)               : 0.329
Stream size                      : 1.51 GiB (80%)
Writing library                  : XviD 1.2.1 (UTC 2008-12-04)

Audio
ID                               : 1
Format                           : AC-3
Format/Info                      : Audio Coding 3
Mode extension                   : CM (complete main)
Codec ID                         : 2000
Duration                         : 1h 59mn
Bit rate mode                    : Constant
Bit rate                         : 448 Kbps
Channel(s)                       : 6 channels
Channel positions                : Front: L C R, Side: L R, LFE
Sampling rate                    : 48.0 KHz
Bit depth                        : 16 bits
Compression mode                 : Lossy
Stream size                      : 384 MiB (20%)
Alignment                        : Split accross interleaves
Interleave, duration             : 40 ms (1.00 video frame)
Interleave, preload duration     : 500 ms


Plot:
The story of a a young man who has spent his life searching for revenge only to
find himself up against a bigger challenge than he originally bargained for.


Cast:
Josh Hartnett    ...    The Drifter
Demi Moore       ...    Alexandra
Woody Harrelson  ...    The Bartender
Ron Perlman      ...    Nicola


[img]http://img685.imageshack.us/img685/1264/bububububububububu.png[/img]
[img]http://img59.imageshack.us/img59/6576/bububuw.png[/img]
[IMG]http://img42.imageshack.us/img42/9548/bbuu.png[/IMG]
[img]http://img32.imageshack.us/img32/7119/bubububu.png[/img]
[img]http://img4.imageshack.us/img4/6527/bububububu.png[/img]
[img]http://img132.imageshack.us/img132/4774/bubububububu.png[/img]
[img]http://img829.imageshack.us/img829/6088/bububububububu.png[/img]
[img]http://img41.imageshack.us/img41/8933/bubububububububu.png[/img]
[img]http://img638.imageshack.us/img638/5412/56277177.png[/img]



Greetz

ViSiON,SiC,SANTi,3LT0N,YanKeeS,MAGNET,THC,T0XiC,LKRG,FANTASIA-PLAY,FANTASIA-M,FLAWL3SS,
D2U,WBZ,BHRG,NOVA,Vik,Rapeseed,SAFC,goldadvance,MEMORY100,KaN1vE,Unevano,Pinnz,Wayne
Mr Hive,cedrict wink,and all P2P groups
Great Work Guys :D

LOOKING FOR ANYTHING YOU WANT TO LOOK AND SOUND BETTER

CM8@hushmail.com